Coordinates
version=1
nRows=7
nColumns=40
inDegrees=yes

Units are S.I. units (second, meters, Newtons, ...)
Angles are in degrees.

endheader
time	pelvis_tilt	pelvis_list	pelvis_rotation	pelvis_tx	pelvis_ty	pelvis_tz	hip_flexion_r	hip_adduction_r	hip_rotation_r	knee_angle_r	knee_angle_r_beta	ankle_angle_r	subtalar_angle_r	mtp_angle_r	hip_flexion_l	hip_adduction_l	hip_rotation_l	knee_angle_l	knee_angle_l_beta	ankle_angle_l	subtalar_angle_l	mtp_angle_l	lumbar_extension	lumbar_bending	lumbar_rotation	arm_flex_r	arm_add_r	arm_rot_r	elbow_flex_r	pro_sup_r	wrist_flex_r	wrist_dev_r	arm_flex_l	arm_add_l	arm_rot_l	elbow_flex_l	pro_sup_l	wrist_flex_l	wrist_dev_l
     30.04000000	     -0.48085080	     -1.83393015	      3.43298601	      0.92602509	      0.91658692	      0.40504822	     22.72263323	    -10.34405000	     -9.22568157	     72.33753954	     72.33753954	      0.89131328	    -19.75531028	     23.97364562	     19.03734526	      2.13486173	      1.68451235	     32.65176412	     32.65176412	     17.90457067	    -18.52563902	      5.87244147	    -10.15803450	      0.68646714	      2.41931091	     25.39085074	    -13.19323486	     -4.93450350	     67.88592526	     44.96264300	      0.00000000	      0.00000000	     21.31156811	    -13.19832248	      7.66203025	     34.34578366	     44.96895010	      0.00000000	      0.00000000
     30.05928571	     -0.34009585	     -2.07274173	      2.82967934	      0.92509132	      0.91511722	      0.40363697	     23.70820653	     -9.89670676	     -8.32248730	     72.67092206	     72.67092206	      3.34235364	    -19.75046252	     24.03937743	     18.97865367	      1.83481067	      1.20571701	     33.57194783	     33.57194783	     18.73406725	    -18.47058485	      6.13542602	    -10.34306190	      1.43054139	      2.89813900	     21.42700655	    -13.61949400	     -4.43930833	     64.84100601	     45.03747283	      0.00000000	      0.00000000	     23.33447375	    -13.06193616	      7.49775896	     35.61998013	     45.03821032	      0.00000000	      0.00000000
     30.07857143	     -0.24814344	     -2.20358667	      2.21112554	      0.92410904	      0.91379783	      0.40218352	     24.77545294	     -9.51740291	     -7.34638446	     72.81937523	     72.81937523	      5.90923100	    -19.73621805	     24.74109427	     18.91228048	      1.73291566	      0.89788330	     34.44829895	     34.44829895	     20.02747814	    -18.49282777	      7.90584792	    -10.43675414	      2.06633297	      2.58182227	     18.86220061	    -13.31908664	     -3.53581980	     58.83784497	     45.22127440	      0.00000000	      0.00000000	     24.87510998	    -13.54475756	      7.50817451	     37.13064847	     45.13168767	      0.00000000	      0.00000000
     30.09785714	     -0.17476939	     -2.41181020	      1.55388718	      0.92317384	      0.91279310	      0.40089752	     25.75875030	     -9.00798417	     -6.43556023	     72.51917345	     72.51917345	      7.91006123	    -19.72403742	     24.26254379	     18.71906734	      1.47237548	      0.41587322	     35.02060478	     35.02060478	     20.62449723	    -18.55242257	      7.98509279	    -10.66000116	      2.80628141	      3.07206218	     15.17467030	    -13.74594032	     -3.10846618	     55.21372307	     45.31873169	      0.00000000	      0.00000000	     26.81137211	    -13.55575639	      7.30497543	     38.78896937	     45.20594805	      0.00000000	      0.00000000
     30.11714286	     -0.12019353	     -2.60104166	      0.91094999	      0.92229602	      0.91244726	      0.39978682	     26.64907970	     -8.47409252	     -5.59145887	     71.71767956	     71.71767956	      9.66127448	    -19.70057887	     23.89017936	     18.39189615	      1.25813561	      0.01451361	     35.33211210	     35.33211210	     21.39290895	    -18.57586453	      8.90122275	    -10.76440657	      3.51208547	      2.39836941	     13.78376444	    -13.07349919	     -2.81306186	     47.17591780	     45.59882604	      0.00000000	      0.00000000	     27.94385994	    -14.54266146	      7.24133863	     40.75134418	     45.31072355	      0.00000000	      0.00000000
     30.13642857	     -0.10208223	     -2.82174495	      0.21349603	      0.92149459	      0.91264687	      0.39897449	     27.45898343	     -7.83929766	     -4.77746187	     70.36371105	     70.36371105	     10.98923122	    -19.66662984	     23.24053061	     17.91348212	      0.95283396	     -0.52185866	     35.28270036	     35.28270036	     21.74713519	    -18.59247520	      8.98979617	    -10.98632295	      4.28358034	      2.69440697	     10.47611268	    -13.40282390	     -2.71479335	     43.70382964	     45.70555669	      0.00000000	      0.00000000	     29.65318114	    -14.82438112	      6.92837758	     42.38886779	     45.39803019	      0.00000000	      0.00000000
     30.15571429	     -0.16446014	     -3.06748743	     -0.48927203	      0.92072648	      0.91354044	      0.39842707	     28.13708471	     -7.15460400	     -4.09680629	     68.31899477	     68.31899477	     11.73315434	    -19.61344899	     21.60764215	     17.33580551	      0.62168622	     -1.03100209	     34.88357207	     34.88357207	     21.96070449	    -18.56691216	      9.12925367	    -11.08664061	      5.03211306	      2.20037492	      9.05501870	    -12.94940283	     -3.62217907	     36.88583457	     46.00525310	      0.00000000	      0.00000000	     30.64071598	    -15.89539543	      6.61431032	     44.32787729	     45.52713707	      0.00000000	      0.00000000
